<?xml version="1.0" encoding="utf-8" ?>
<svg baseProfile="full" height="420" version="1.1" viewBox="0 0 1938 420" width="1938" xmlns="http://www.w3.org/2000/svg" xmlns:ev="http://www.w3.org/2001/xml-events" xmlns:xlink="http://www.w3.org/1999/xlink"><defs /><path d="M 519.0,167.0 L 519.0,310.0 L 522.0,338.0 L 531.0,359.0 L 539.0,370.0 L 565.0,391.0 L 594.0,399.0 L 912.0,399.0 L 912.0,319.0 L 626.0,319.0 L 615.0,314.0 L 606.0,302.0 L 607.0,244.0 L 912.0,244.0 L 912.0,167.0 Z M 1379.0,396.0 L 1379.0,399.0 L 1479.0,399.0 L 1535.0,307.0 L 1763.0,307.0 L 1818.0,398.0 L 1917.0,399.0 L 1696.0,21.0 L 1603.0,22.0 L 1451.0,279.0 Z M 1647.0,107.0 L 1650.0,108.0 L 1720.0,228.0 L 1721.0,235.0 L 1575.0,235.0 L 1577.0,228.0 Z M 940.0,21.0 L 1173.0,399.0 L 1265.0,399.0 L 1499.0,24.0 L 1499.0,21.0 L 1396.0,21.0 L 1224.0,303.0 L 1220.0,304.0 L 1048.0,21.0 Z M 20.0,21.0 L 20.0,101.0 L 346.0,101.0 L 358.0,105.0 L 367.0,113.0 L 372.0,123.0 L 374.0,134.0 L 373.0,154.0 L 368.0,166.0 L 360.0,175.0 L 347.0,181.0 L 20.0,181.0 L 21.0,399.0 L 110.0,399.0 L 111.0,259.0 L 233.0,259.0 L 362.0,398.0 L 485.0,399.0 L 430.0,340.0 L 348.0,259.0 L 349.0,256.0 L 367.0,256.0 L 393.0,251.0 L 415.0,241.0 L 439.0,219.0 L 453.0,192.0 L 458.0,167.0 L 459.0,127.0 L 457.0,100.0 L 443.0,65.0 L 422.0,42.0 L 399.0,28.0 L 368.0,21.0 Z M 520.0,91.0 L 520.0,101.0 L 912.0,101.0 L 912.0,20.0 L 619.0,20.0 L 584.0,22.0 L 559.0,32.0 L 542.0,46.0 L 532.0,59.0 L 524.0,75.0 Z" fill="#a78bfa" fill-rule="evenodd" /></svg>